<mxfile host="app.diagrams.net" modified="2021-06-24T08:19:11.631Z" agent="5.0 (Macintosh; Intel Mac OS X 10_15_7) AppleWebKit/537.36 (KHTML, like Gecko) Chrome/91.0.4472.114 Safari/537.36" etag="rUZdTfls3zrGK7_Fw8PM" version="14.8.0" type="github">
  <diagram id="NhcaxoaE0NAFlcaMM9a_" name="Page-1">
    <mxGraphModel dx="1320" dy="1043" grid="1" gridSize="10" guides="1" tooltips="1" connect="1" arrows="1" fold="1" page="1" pageScale="1" pageWidth="827" pageHeight="1169" math="0" shadow="0">
      <root>
        <mxCell id="0" />
        <mxCell id="1" parent="0" />
        <mxCell id="D6SXMCeq1Teb1e1lIuU3-1" value="" style="rounded=0;whiteSpace=wrap;html=1;" vertex="1" parent="1">
          <mxGeometry x="1055" y="375" width="155" height="360" as="geometry" />
        </mxCell>
        <mxCell id="D6SXMCeq1Teb1e1lIuU3-2" style="edgeStyle=orthogonalEdgeStyle;rounded=0;orthogonalLoop=1;jettySize=auto;html=1;exitX=0.5;exitY=1;exitDx=0;exitDy=0;" edge="1" parent="1" source="D6SXMCeq1Teb1e1lIuU3-3" target="D6SXMCeq1Teb1e1lIuU3-5">
          <mxGeometry relative="1" as="geometry" />
        </mxCell>
        <mxCell id="D6SXMCeq1Teb1e1lIuU3-3" value="" style="rounded=0;whiteSpace=wrap;html=1;" vertex="1" parent="1">
          <mxGeometry x="406" y="250" width="229" height="60" as="geometry" />
        </mxCell>
        <mxCell id="D6SXMCeq1Teb1e1lIuU3-4" style="edgeStyle=orthogonalEdgeStyle;rounded=0;orthogonalLoop=1;jettySize=auto;html=1;exitX=1;exitY=0.5;exitDx=0;exitDy=0;" edge="1" parent="1" source="D6SXMCeq1Teb1e1lIuU3-5" target="D6SXMCeq1Teb1e1lIuU3-9">
          <mxGeometry relative="1" as="geometry" />
        </mxCell>
        <mxCell id="D6SXMCeq1Teb1e1lIuU3-5" value="" style="rounded=0;whiteSpace=wrap;html=1;" vertex="1" parent="1">
          <mxGeometry x="408" y="420.5" width="224" height="270" as="geometry" />
        </mxCell>
        <mxCell id="D6SXMCeq1Teb1e1lIuU3-6" style="edgeStyle=orthogonalEdgeStyle;rounded=0;orthogonalLoop=1;jettySize=auto;html=1;exitX=0.5;exitY=1;exitDx=0;exitDy=0;entryX=0.5;entryY=0;entryDx=0;entryDy=0;" edge="1" parent="1" source="D6SXMCeq1Teb1e1lIuU3-9" target="D6SXMCeq1Teb1e1lIuU3-13">
          <mxGeometry relative="1" as="geometry" />
        </mxCell>
        <mxCell id="D6SXMCeq1Teb1e1lIuU3-7" style="edgeStyle=none;rounded=0;orthogonalLoop=1;jettySize=auto;html=1;exitX=1;exitY=0.5;exitDx=0;exitDy=0;entryX=0;entryY=0.5;entryDx=0;entryDy=0;" edge="1" parent="1" source="D6SXMCeq1Teb1e1lIuU3-9">
          <mxGeometry relative="1" as="geometry">
            <mxPoint x="926" y="557.5" as="targetPoint" />
          </mxGeometry>
        </mxCell>
        <mxCell id="D6SXMCeq1Teb1e1lIuU3-8" style="edgeStyle=none;rounded=0;orthogonalLoop=1;jettySize=auto;html=1;exitX=1;exitY=0.5;exitDx=0;exitDy=0;entryX=0;entryY=0.5;entryDx=0;entryDy=0;" edge="1" parent="1" source="D6SXMCeq1Teb1e1lIuU3-9" target="D6SXMCeq1Teb1e1lIuU3-1">
          <mxGeometry relative="1" as="geometry" />
        </mxCell>
        <mxCell id="D6SXMCeq1Teb1e1lIuU3-9" value="" style="rounded=0;whiteSpace=wrap;html=1;" vertex="1" parent="1">
          <mxGeometry x="726" y="375" width="260" height="360" as="geometry" />
        </mxCell>
        <mxCell id="D6SXMCeq1Teb1e1lIuU3-10" style="rounded=0;orthogonalLoop=1;jettySize=auto;html=1;exitX=1;exitY=1;exitDx=0;exitDy=0;entryX=0;entryY=0;entryDx=0;entryDy=0;" edge="1" parent="1" source="D6SXMCeq1Teb1e1lIuU3-1" target="D6SXMCeq1Teb1e1lIuU3-54">
          <mxGeometry relative="1" as="geometry">
            <mxPoint x="1146" y="740" as="sourcePoint" />
          </mxGeometry>
        </mxCell>
        <mxCell id="D6SXMCeq1Teb1e1lIuU3-11" style="edgeStyle=none;rounded=0;orthogonalLoop=1;jettySize=auto;html=1;exitX=1;exitY=0.5;exitDx=0;exitDy=0;entryX=0;entryY=0.5;entryDx=0;entryDy=0;" edge="1" parent="1" source="D6SXMCeq1Teb1e1lIuU3-13" target="D6SXMCeq1Teb1e1lIuU3-54">
          <mxGeometry relative="1" as="geometry" />
        </mxCell>
        <mxCell id="D6SXMCeq1Teb1e1lIuU3-12" style="rounded=0;orthogonalLoop=1;jettySize=auto;html=1;exitX=1;exitY=0;exitDx=0;exitDy=0;entryX=0;entryY=1;entryDx=0;entryDy=0;" edge="1" parent="1" source="D6SXMCeq1Teb1e1lIuU3-13" target="D6SXMCeq1Teb1e1lIuU3-1">
          <mxGeometry relative="1" as="geometry">
            <mxPoint x="926" y="740" as="targetPoint" />
          </mxGeometry>
        </mxCell>
        <mxCell id="D6SXMCeq1Teb1e1lIuU3-13" value="" style="rounded=0;whiteSpace=wrap;html=1;" vertex="1" parent="1">
          <mxGeometry x="661" y="760" width="394" height="140" as="geometry" />
        </mxCell>
        <mxCell id="D6SXMCeq1Teb1e1lIuU3-14" value="Trace日志" style="text;html=1;align=center;verticalAlign=middle;resizable=0;points=[];autosize=1;strokeColor=none;" vertex="1" parent="1">
          <mxGeometry x="418.04" y="260" width="70" height="20" as="geometry" />
        </mxCell>
        <mxCell id="D6SXMCeq1Teb1e1lIuU3-15" value="单笔串联服务" style="text;html=1;align=center;verticalAlign=middle;resizable=0;points=[];autosize=1;strokeColor=none;" vertex="1" parent="1">
          <mxGeometry x="418.04" y="418.5" width="90" height="20" as="geometry" />
        </mxCell>
        <mxCell id="D6SXMCeq1Teb1e1lIuU3-16" value="链路串联计算任务" style="text;html=1;align=center;verticalAlign=middle;resizable=0;points=[];autosize=1;strokeColor=none;" vertex="1" parent="1">
          <mxGeometry x="736" y="375" width="110" height="20" as="geometry" />
        </mxCell>
        <mxCell id="D6SXMCeq1Teb1e1lIuU3-17" value="数据服务" style="text;html=1;align=center;verticalAlign=middle;resizable=0;points=[];autosize=1;strokeColor=none;" vertex="1" parent="1">
          <mxGeometry x="1060" y="380" width="60" height="20" as="geometry" />
        </mxCell>
        <mxCell id="D6SXMCeq1Teb1e1lIuU3-18" value="算法计算(irlab&amp;amp;irlabsdk)" style="text;html=1;align=center;verticalAlign=middle;resizable=0;points=[];autosize=1;strokeColor=none;" vertex="1" parent="1">
          <mxGeometry x="677.5" y="785" width="140" height="20" as="geometry" />
        </mxCell>
        <mxCell id="D6SXMCeq1Teb1e1lIuU3-38" value="" style="edgeStyle=orthogonalEdgeStyle;rounded=0;orthogonalLoop=1;jettySize=auto;html=1;" edge="1" parent="1" source="D6SXMCeq1Teb1e1lIuU3-39" target="D6SXMCeq1Teb1e1lIuU3-41">
          <mxGeometry relative="1" as="geometry" />
        </mxCell>
        <mxCell id="D6SXMCeq1Teb1e1lIuU3-39" value="分发" style="rounded=1;whiteSpace=wrap;html=1;" vertex="1" parent="1">
          <mxGeometry x="806" y="483" width="120" height="60" as="geometry" />
        </mxCell>
        <mxCell id="D6SXMCeq1Teb1e1lIuU3-40" style="edgeStyle=none;shape=link;rounded=0;orthogonalLoop=1;jettySize=auto;html=1;exitX=1;exitY=1;exitDx=0;exitDy=0;entryX=0.5;entryY=0;entryDx=0;entryDy=0;" edge="1" parent="1" source="D6SXMCeq1Teb1e1lIuU3-41" target="D6SXMCeq1Teb1e1lIuU3-46">
          <mxGeometry relative="1" as="geometry" />
        </mxCell>
        <mxCell id="D6SXMCeq1Teb1e1lIuU3-41" value="聚合" style="rounded=1;whiteSpace=wrap;html=1;" vertex="1" parent="1">
          <mxGeometry x="806" y="569" width="120" height="60" as="geometry" />
        </mxCell>
        <mxCell id="D6SXMCeq1Teb1e1lIuU3-42" style="edgeStyle=none;rounded=0;orthogonalLoop=1;jettySize=auto;html=1;exitX=0.5;exitY=0;exitDx=0;exitDy=0;entryX=0;entryY=1;entryDx=0;entryDy=0;shape=link;" edge="1" parent="1" source="D6SXMCeq1Teb1e1lIuU3-43" target="D6SXMCeq1Teb1e1lIuU3-41">
          <mxGeometry relative="1" as="geometry" />
        </mxCell>
        <mxCell id="D6SXMCeq1Teb1e1lIuU3-43" value="链路存储" style="rounded=1;whiteSpace=wrap;html=1;" vertex="1" parent="1">
          <mxGeometry x="746" y="660" width="120" height="60" as="geometry" />
        </mxCell>
        <mxCell id="D6SXMCeq1Teb1e1lIuU3-44" value="" style="shape=image;verticalLabelPosition=bottom;labelBackgroundColor=#ffffff;verticalAlign=top;aspect=fixed;imageAspect=0;image=data:image/png,iVBORw0KGgoAAAANSUhEUgAAAggAAABmCAYAAACunWlgAAAgAElEQVR4Xu3dCbh9VVk/8E2DVpqZZZopiqSGIqaCKIgSiBJTkCWjAyEgohUqlCAgKoom4IACloqJooImpqKi/UCUzAlUMjPRyrKccrZskJ7P+v/fX4vN3mcP95xzzz1n7ee5z733nL3XXutda73v9x3XFjfccMMNVbkKBQoFVpoCORuIv7fYYovNNPFZ/n980fa57/N2mp5dK8HrrGtSX/J35ffF3/VnZ933tY69PF8oMA8KbFEAwjzIXN5RKLDYFCAQc4H7wx/+sPqRH/mRzaAgF5i5UI1RtQGAuNf3fQV4X0q16Tbepf9tgCbvU/1dMe7881mAm75jLPcVCqwnBQpAWE/ql3cXCiwIBf7zP/+zetWrXlX93M/9XPUf//Ef1WWXXVY94hGPqO5zn/tUf/d3f1ddfvnl1Q477FB99rOfrW5xi1tU97vf/apf+qVfqt785jdXO+20U/W+972vuvnNb17tscce1UMe8pDqbW97W/X2t7+9esADHlDd7na3q/bbb7/NgGMaApeQ/5//+Z/qqquuql73utdVD3/4w6tPf/rT1SGHHFL91E/9VHXttddW1113XWVcX/nKV6of//Efr+5+97un/p133nnVox71qOpNb3pT9aM/+qPVve997+rggw+uPvKRj1QvfOELq4c+9KHVrW996+qRj3xk9RM/8ROp3+UqFFhFChSAsIqzXsZcKJBRgLD9wQ9+UL3nPe+pfvInf7I644wzqj333LN617veVf3RH/1RErQXX3xx9Ru/8Rvpnl/+5V9OQILAPeecc6qtt966+s53vlPd6U53qu52t7tVt7rVraqnPe1p1X3ve9/qE5/4RPr81FNPTcABOJiGwNVnQOaII46o3v/+9yew8o1vfCP133se97jHpb7f8pa3TGABeAEEDjvssOplL3tZddvb3rb6+te/noDDPe5xjwSGHvvYx1Z3uctdqi996UuJHsbwmMc8Zir9LQuuUGAjUqAAhI04a6XPhQJTpgBh+7znPa+62c1ulkDAHe5wh6R5/87v/E71t3/7t0nbJjCvueaa9GYA4s53vnN18sknp789Q9D+yq/8SgIO7iWQPetzIOEP//APk8a+VgtCuEP0mbB/97vfXe2yyy7VBz/4wWTd2HLLLdO7X/GKV6S/v/WtbyWAoB/HHXdc9dSnPjUJ/gsuuCD1hTWEReGoo46qfvVXf7W6+uqrq/vf//7VP/zDP1RvfetbC0CY8lorzW0cChSAsHHmqvS0UOAmFMhjB3LBO0QIRxsE7Dve8Y7qy1/+cvVf//VfSZifeeaZ1eGHH15df/311ROf+MTqox/9aNK6aeKvfOUrqw9/+MPVbrvtloADzf1BD3pQEs7HHHNMErKf/OQnq+222y5p9ieddNKN4hrGTmfEHvz3f/93checffbZ1TbbbJMsGSwJ+q+vp512WnXQQQcl8PKv//qvyarAFcJ9AlBwlwBCO++8c3XooYcmawSXCMuJ71k/3vKWt0wENOHqyK0iaD+E/mPpUJ4rFJg1BQpAmDWFS/uFAjOkAAElsM7vf//3f08a9FAB5VmA4Pjjj0/t3P72t68+9alPVd///veTW+E2t7lNAgKE5ote9KLqx37sx6qjjz46advnn39+tddee1XPetazkln+yCOPTM+zOPDjE7LM9ne84x2TBYEgXauLIQCCGIQPfehD6d366V3ACgvA9ttvX23atCnFPxgL98P++++fLCIABQsCiwkA84QnPKHacccd09i4T9773vcmUMOCACA09Tf6gPZ//Md/XH3zm99M7XCv+A64KlehwEanQAEIG30GS/9XmgKEEU361a9+dXXFFVckYSVIb6gGC1x4FsB44AMfmLRo7gExBb//+7+f2mdF+Jd/+ZckAAlgGjkzveBAFgXBglwJ97znPdP32mSRIMQf/ehHJ1eEfk1DeIbV43vf+14CCKwX//RP/1RdeeWVqV+77rprClB8wQtekCwFLtaC5zznOcnyIc7APeIXvv3tb1cHHnhguude97pX9cY3vjG5K7geuCTaAIKxoD1gde655yaghIY/+7M/u2YQtNKLugx+YShQAMLCTEXpSKFAPwqE9ur3V7/61eqss85KQo9G/2d/9mfVT//0T/drKLsrrBCRAuh/wo+1gEAnbMUn5Jd7fe7i43d/CNP47TP3RDbAUOtG00Dq6ZiAiPZd3qUv3h/mf5/n73WP79wXFhhj9Lfnos/Gy50yKYWTFQNAuOiii9Lz5uD0009PAZr5O4cCtsETWB4oFJgBBQpAmAFRS5OFAtOkQGjLuZAhwAURCqyT6kfzp/1ecsklCSCMEUj190TtgvpY6gWUAlSEIA4B3uf5vnTKQUG8J2od5O9v62v+fH5//N3WxiRw4F0AAtfJpZdemiw3LBoulgSxDQBG9LfvWMt9hQKLQoECEBZlJko/CgUmUCC3GvibaVzq4Be/+MXk9xZDwLwvHXEsQPD6XLjn3ekSpHFvHRyEgM0F9BjwAgzk11otEZNARZ+FGONhbXj605+egh+5FnwOJMicOPbYY1PMA/AW15ix9+lPuadQYBYUKABhFlQtbRYKTJkCod0TSPzsj3/841MtAuDAxcwuKPANb3jDIIDQV/DnAKBLyOVt1kEGU/6YIEUAQdDkH/zBH6RgSJp7Vz+mPAWNzemXDA7zYD6iT+bpr//6r6sDDjggAblw+yxCn+dBl/KO5aBAAQjLMY9lFEtIgbpZnTBS6e81r3lN9Yu/+IubwYGhf/e7301R9yoK8q0v2qXv4hkEEHKFDL08/2//9m+pmqNaC2u1AAx9f9P90QdCX6ZHuBPiXrEOAjulXgqW3GqrrQZnmEyjn6WNQoGxFCgAYSzlynOFAjOkQFgM4hVf+9rXUrQ+14Lyx1FwKNdYo37BImmpuctBlgF/vboKQy/tAAjSGHfffffWx7tiBvIHm+6tgzL3d7U5qR2Wjs997nMpa0LVSXUi1uoeGUq7cn+hwFgKFIAwlnLluUKBGVMgMgu+8IUvVCeeeGIqDUx7DgtBk1+/7ZCiGXe1s3lC8eMf/3iqP8AvP/QKgCBVct999x36+Lrdr9/iQ6R7SptU2Gmsm2XdBlFevLIUKABhZae+DHzRKUC4MFMrW/yBD3wgCUZmep/z49NO48TFNr//IowxgIx6CEoat1kQjEf55KY6DtoAkBREipoFizC2rj5w/cgy+Zmf+ZnkZlAwqlgQuqhWvl8UChSAsCgzUfpRKFCjQFgD1Dpw8JBCSHvvvXeKlq9fARry34tGUP3fZ599Gi0I+v35z38+pQeecsopqTRzPa2Ti0EBJsWbXE3ugHmOOWgt9kDshyDFvE+KSqnEaMxPfvKTE0iIa5HcQPOkWXnXxqJAAQgba75Kb1eEAnkMgr9p1i9/+ctThcNf+7VfS5poFPchbHzvuGJa+CJexuDYaHUbVFVsAjj/+I//mAoOqdzIjVIHCKwpSjgbYx0cNKVTNtGhXsNhEq262vS9vqiB4MjrbbfddnNxJlUozRVriaOk6zEjBSAs4iotfapToACEsiYKBRaUAnUhyJftfAGV+xxPrLxwuBYEAL7+9a9P2nlUFVy0YRGKD33oQ1MGRhNAIGwj26Fuhl9va0EbLfXZIVQyFVRP1H9nOXArqKgo64JbyFVcC4u2Ipe3P9PK8ikAYXnXSBnZBqdAfZOHVUF+PaHEisB8LQdfIKMyy85GGFNqeR6kytMCmwCCNM0LL7wwHccM5IzRsucdiwEgPOMZz0hHSTvmmoXDyZEyThz8VAcFY8Y0j7kp71guCuTZQ2sZWQEIa6FeebZQYI4UiGqCNr+0uWc+85mpQNLv/u7vJqH0p3/6p5sBwiTzeFfaXj6kaaUC9mkTyHnVq16VwE+cpzCUvOsBEE4++eRqyy23TJYDoOCEE064UZxInAvR5t7oAg19mX1TVksb/abd5nq+2xinPZ6N3maxIAzlHOX+QoENToFc+PlbhLyDmq699trq13/916vLL788Cdi1lFpeLxIZTz2LoUtwNvVVO3HQVC40ZuWiCAuCUssHHXRQOvJZgGWAgvWiZ3nv6lLAvuHWigyntVCiWBDWQr3ybKHAnClQF3QC9wTD0WL5wZVazqPl59y90a8zLlUHHZvsSOaxLgbg4K/+6q+qM888M9UfmHR1BSHGs5M0f+9znLTSympUxFHWOZhrAjrTDJas97MPGBo69mVpc5Z0z60ObetuHnT3jic+8YnVHnvsMcpNdyNr3w19Zn70ti8PFgoUCkyLAk3m84hLkEL4yU9+sjrmmGNukgEwrffPsh3j+Pu///vkIlFtcS0A4c///M8rP7/1W7+VGOSsWFxd8M/qPbOke2l7uShgTb773e9Ox45HttAYS9xm0FkAwnItkDKa1aJAAITQXuIgpLUwhfWgYIwj4iwiLXBoX7Tztre9rfr0pz+dgMYQOkzLbzu0z+X+QoFpUkAtETE8AEJusRiyFwpAmOaMlLYKBaZMgSFBV033jmEGUx7CoOaMQR0ELpLf+73fq252s5uNOvUxAMLf/M3fpJMfNxodBhGt3FwokFEgAG4AhMMOO+xG63/MXlhzDEIwpy6fW5nJQoFCgXEUiL01ZoOPe+P8nzJGvvyzzz47xQ80lVvu0yvtcC+wILQBhOBZ+bkVk4IKN5rfOqxJbfQaM55ZtNnlkhnTz1Vrs4lGf/Inf5IAdlgQwjoX9/rdl5esGSDEwonz2gXrdF1DAzW6FqfvF6HNrsU5pp9dbZZN9P9WW186Teu+ec2laORb3OIWS19kB/+QEfC9732vuuUtb7m58mAXL6l/3wcgxHpRCvmb3/zmZt7Rl2kO7VO5v1BgXhSw/i+55JJ09LhzS/JLKi7gnfOurn6tGSDkvsMnPelJlRKjXdciCPNZCJWuNoswn40w76L7GGHe1eas59L7Cc2tttoqRfbXSw937bGN9n0EKaoGqVDS2PF2AYSwxlBkHve4x1VXXnllYqblKhRYJgrUa2+ok/L2t789VTKdK0AIotpwTBrSK25zm9vciNZt/tQxEcb1QKKC+pdpWfcbS90KMGYd9XvT+t71rW99q3rRi15UveY1r0m59ct8BUBgHlWZcC2FkuouhqbgQ9aKxz72semkzG222WaZSVvGVihQPfKRj0xrfdddd91cnr0PWdZsQcgBwhFHHJFOnbvtbW/bml6Ug4W2v6PNnPG7V/W4z3zmM0mzimjtPoMs9ywnBZjfd9xxx9EpcYtMFev9a1/7Wjq4iNBcdoBgTxszwW1eh/hJ83lssiC0AQQWBJkO97znPRd5KZS+FQqMpkCsfe6GpzzlKesLEBwUEwDBiPj4bn/721eOq/2FX/iFzYPUaRYHx7e6BFTc+ta3TgDAUbZOpsMwfv7nf/5GwRR/+Zd/mYqp2NCLUqksD84cYroZPeM9HsyD2gKENTHJHk0t7C0/+MEPUmlbFivH7C7bZb6+/vWvJ4AgKnnZAYLx/vM//3M6T+LII49cUxZDV5CitQKIAAhPf/rTOwFCbrEqFstl22nLPZ5YuwDCcccdlwBCLqe61vbULAg2nKNNAQSC/S/+4i9SNPGxxx6bDjB52MMelkAAsODYWiefOYHOj0NOoJvzzz+/uv/971+94x3vSFrhGWeckRhFDAJAEMS088473whs1Acclof8dzyQC8q1Ck3t55HQ3tHkTmlzsdSXZtdk1TWlOiCpj2et41vkrfP973+/euUrX1k9/vGPLwBhkSeqZ9+sVcdBv+QlL6me//znp8DMMVeTBaGpnQAILAj3ute9Ol9Vd2u1MdmmhlY15moMjXIe2jYpi0DPpvWQ93fWMUp93+8+PwCC2J6IQWiSPU1W+ZkABBqdcqnXXXdddZe73KX69re/nawC97nPfZLfDxNwpr2gCUGNd73rXZMmSFtyjC3i3uEOd0iDAhBC0PcBCE2Lqk1wNoGFOuEnaQzxvJKugI7T6FhG1tMnLkoVPVlswky7bEDBeBxSVABCp1zbMDeYU/voO9/5TlIkrN0xbsRZAARKAMUEHxvTpw0zCaWjS0kB65d13zkhXLI5wFKQjLy2rucKEK6++uqKQIdY1EbnPnDS2U477ZSCkJRBBQ6Uh2VNeNSjHpVOpeM+2HrrrZNrYr/99ksRxtFx7TmghgUhF8Lyp5lgP//5z6f3+Y6gfuc735kAioAn36tVT4gjmP4BLFKqnE/PsqG4CuYk4tPnD3zgAzenmLVpBjSRiy++OJ2kJ/Yizn5fr5VGswbG1OZXbjNQ/LKBBON0MJG4l2V0MZi3iEFYFReDPfj+97+/2nfffTcrBkP3URNAaFr7EaR44okn9nIxmAN7fFGP0h5Kp3L/6lCAPMRLyDSW+VCCuWl9d+mll6b0x7kCBOVO3/rWt1Z3vvOdk+DUOcJ+//33r5797GdX97vf/apNmzZVzrZ3pj2h/573vKd6wAMekNC6zm633XZJYIc2HADhwQ9+cJpdUd40d75aB9RcddVV1Q477JDeqR61gR988MGJ6fz2b/92cl+ccsop1Z3udKeUacGkecc73rF60IMeVH3lK19JKU8EPNACzAAsLBltVgSf03hkb7z0pS9NYGS9L5PvVD/MTHCb8SwbOEDjAhDWe6VN9/1AO4CON7AMxYmIQ98yK4Dw4he/OPEw/Gua13paG6c5jtLWYlKgzTVm3dlvrPbksLXdJOdm4mIg0J0yR0hxGbz5zW9OAEB1s3vf+97VNddck4Spw1nEKhxwwAHVwx/+8OrCCy9M2j6Lgu9YBBxjGz7COkBg8pMCtu222yaBry3gQvCRE+4ACJ/5fpdddkmAAwhgIbjVrW6VBCdBc+CBB1af+9znUr8ABTEUgiGf/OQnpxPaJl0sEscff3z1ute9LrXpanJphCY/qa08VmGSUM+/a/J1ce2I6dCnKLKzbCBh2QGC+Vq1IEVaPddRxB+MMecPdTH0DVLkFmVppGjEXsr3a5d4mMQTugIf+74nFwbTbrOrveB7Q/lcH364ym2ule6TYhXIYy7/uQOEyD6godPmmTfUWec6CHPwN77xjSTAMQWWBZo6UOBvrgCMgiDnTxeH4KoDBIN/2ctelqwHgIciK95Ho2e9YGpnPRAgqV3+FwGQX/7yl1N8wwc/+MHqU5/6VIpk9lswpTrwrAICLBGPRaJpg/oMA/vCF76QSrrWAUKkYrrP+PlXMZi4jM/lOxaNYCBcKN4fCwPoCIbJbYImuVWjiYkCCCJW9QkyXMZrFQCCLB/rcRVcDPaLtc0taP9G7NHQtTsUIPQNUmRBsH/jhEj7mQJzu9vdLvEZv3MQYA9TVnxm/9rHxkd5iuwtGVuR0jl0nOX+QoG1UoD1njINIIQiWW9zJhYELoUc9dkkOeom1OrR/3nH4t56FkIdIAAXBvnRj340afpSpARiKCnJfAIM2IAPechDkrA86aSTkvvgYx/7WCqOYpOzMIiJ4JKQlglIfPGLX0wmTtaLiGmoWwa6AILvtScVD1LzPybCiqHNs846K/WTW+Qxj3lMYhysKsbAioGhEIJ+77nnnqmfQMUHPvCBFOCJhlwzfEr1qwCEtW6d9X/eelklgGC8YpJe+MIXpiBm+6+P9lSfqXkABO9gubQXuUTtV/E+oeRw8eE7/LoAuj0MWFx00UWpYI1nAQguTHt+zDjXf4WWHmx0CqwLQLDB85oH0yKiTVkHCOIPuDFsUNGYNp3gRgL1sssuS1YF1gMaGJQPIAiE0kfBRmG9ABCADMGGkJSgR7EJzPSEetMGDhDDxXDCCSdstiDkJh1WEhYMIEHAI8HNlcIdot+77757AgQsFd7DWsJywSWC2TAxX3HFFSmOQp9YXIyLHxTjEScBKNT7xxoSLoZiQZjWCpx/O6xLLAirUCjJvgHYrXFWxsjAGUr1JoDQ5F4bmuYYFgQuBsqN4EY8AzBwnoN9Zg/7nquUJdAPPgMgCMIWX2E+ASG8ao899kh7eBUAQiiJ5rNeBnjoHJf7b0qBuishX/Nt8osSHS6GuVkQ5gkQmrQHxLD5RWiGFmID26hAhO8woojmFMfAReEzRPUcBiAWghbQlpUwCSDEZF177bXJ1aE4RVhDvBfjcGESgjkPOuig5H7xw9LBFCk40/fMkMxAUfxF27QOVprddtutAIQlz2JYJYAAEHH7sdxN08UwTYDAEhDKyite8Ypqr732SsAfuAfoZUYB/7KxWADxHUoLSwNQ4Xk8yHcUhFUBCHiqa5LluAj+8RSoAwSyLq4CEP5/YGDuuqhHB+cErAf2xXPhNsi/b1vQbQAh3wTcBzQiTCSv/BjmY0DgggsuqBxyBRD4AShkeIhLwDBZDFgQ1OT3P8vC3nvvnQCDIMqmg2aKBWH8RlukJ1fNgmDdnnrqqdVrX/va1rSrrvmZtQWBgMcTHEsdh9/Yr9wJXIn2qjEA+x/5yEfSvmc1BArwFQHZfL7mVkwDC+fYolBdtFik74Pn4VtoUa7pUKAOfv1PjpA5lNE2S5z7lt6CEMSpC/8monXFPYydLoGVEaRIWwhgog9cFjQHGn/0MSZGxoQgJszCZLJiYCRvectbksnSJPueJUMGBhcD0yVrhOBPAAIzEhCaX9qPGARBm22mo7HjXZTnViFIcdWyGMyp+B9aNQ1ojOm9CSA0rdmxLgYAwWVunve85yWwzvXJvWCvCpK2fwGAT3ziE8kCKb2aWxD4FyBtD7MufvzjH09uB1bCZb/MC5cwdy9+15hSt8UWnce21+kU7eT8tf7ZmHW0UeeDzOD6Ovroo5NMmXQtfQzCkElsMjO2Pd/3XveJQcgBgjZjsYpBIOjD3ONz2odgQ8wwBxMYCYAhMI02gtlgYhgRq4Hn/O17Pk1my2g33xDeYeLFIAAI2lrGDVIAwpDVv/j3WresbbQamUOLChDEGLhkFNlngLq9Kk1a4HPUHQESoqoq5QQIECtl3QIRvuNCBPDHpHMu/ozeuIcBELhf5N67mlK04/Mmi29fq3Dw4C6+F++o31cPjp8XrfUnrNh1l8GkPoS80m/yQTaeAnKRdt/27FwBggWvnOM8YhCikuK8Jq7+nhxASHOUKpWnFOYLrm0TNIGQpkXR5u6IRZwzl3CHhIsBQAA6wv/XtWHWi55j3rvsAAFNVq2SouA9569IXR4LbIdaEPrUQTAXeZBibrmsC626cIn/21yVbSbgMXtikZ8JgMB9JK4mV2rafOR1EJGPL+efbby0r6Bvsji3gYa8D/V72oR6G99tu78NuPSZX8D0DW94QzqjJizakwCCIEWB8DMPUgyA4LAm5rZpX4hWL7U87XcMaS8mUZAjYPTqV7968+mT+YKrM5B4R84wIj4hPmtb2HVU3bYxlLY2D9Kp8sOuhoxv0e8tAGHRZ2hY/6xlxdVoQLKgmrJz+rTYBBCa9smQUstdAKHr+Pk2HjBJAPYZ60a6pwkghLaMfrRe1hTp6urg+E7mGbeqNHVWGt/jZ9LH8V3ppFw3rDasrPgeq62AUXV3PEOZFKfVpRxxbeGXXD8RL7Je9CU/Zb2oGNyXf8caKwDhu99NhFvvK1/c5557booLsIDrqDBnDm3aRowlFmaXyXESw/F+x+aqDqlewrJeBSAs18xat5g7v7w6IVwMXfugiQLzAAi5YG8CH/V+9blnuWbzpqNpAwhiMgBDpeq5XsRbcTVJHyWwBXorcMeFIx3dvhenBTw4BZjVSdvHHHNMhQ9z29ztbndLrl/CVZXbSPVuAwn4pcMCxZfc4x73uIl7S/trmcO6CzjWT7SZf+87YxC/ppifuLQ+18IDhDjueR4uhvUECE1+MBMtIIm7Icz5dSYSk9xmlmKBeeMb35jQr7MhJiHeJhCi/QAtgqJstmW+lh0gmMtVK5RUP4uhS+vrCxCa7hsbpEizK9c4CtDS6y4GgYsf+tCH0o9gbmmihL6CUizGCsQ5WE8wqOBGNTLOO++8FIMlpkO9GrFZfO6C87wDH2ZVAAwAhzgdtG29OAOIi1jf6oXnrMGw7OaWolxBzC2/AWqDR8fvCJKPPuSAIwfCAUak+zpL6FnPelZvYusrkM3FgB4lSLE36aZ/Y0xwjgLXkuOrDoNYBmhZINRY5pgDk+mPenFaLABhceZiGj2xj8wpbQ5IXtQgxQIQxs92E0BQd4Z71tk3AAK/uWBPdV58ji+6R3E5QXcsDA7zogCxMqiAa60ceuihScgDfr/5m7+ZgIU08qc+9amblaUm5cxnBLH0S6fDRln/PvEFTZbc/LkQ9nlhqBw4xL1NcWTAkcqbYnL6yoICELLjnvO6AuOX7HSezBfCpBZzzb++kCxsAEEEN/dA271N5su6dWIt5rDpUGT2rRAmGIVgnGU87jksCMrxrkolRQXECAqVRAtAGLaHNsKebwMIrAcO9Ntqq61SbQiuUVo/q6xy+dtvv32KJ5C+ffjhhyfzO+sBV4LS+Q7z45Z6wQtekNaNEvbS/bxPEKr/mxSnsALUAUIu+N3zvve9L527wboArIiJkL0iFsL/SoM7+4bVgmWDNVj6u1LciuCFNcNnamOokWEMrAMASV7UKPg+mgAIUmlnBRDyw5pmHqQ4SxdDEA2qYnalZdfN7MO20+LdbVE985nPTKg4cq0Xr5eL0SMbBkCwgQCEei2Ixejl2nuxSoWS8uOeAaKx9Tvwhag6Kv24LeB30V0MdQUh/z+3XuarLBckbeNe+6oc14I+cyfkLgafybhywq46LzJXmMUJWTxeECKXA3DA5L7TTjulH1H3hLb7BCOyuFKsrBuxB0CGOAaCV2xBW7n5oKNqtn5YLOoVPK2Tc845J8W9cWcAKS58mrBn4ZB1o2idfrpHvQumfmtarARryLHHHpssFQIQ0YBwZvXgCmiqZUPWcRUMAQj61TdI0diXplBSaOgiTC2mPlGp45bx+j1lMTmXgekMYi5XOwXCL2hz0ihoG33r50AAACAASURBVMt4rRJAsMdZEDB4kezTtCA0adcbASDkQj54YN3y2KVddn0/r33TBBDyd+ep2PpMYfIMXk/I+j9Ao//dQyDT4P1NsFMaWJbd639t+t0W7NoXIEhxBVwId/ENAhmVySbArVexD87aAUy4oGRY+O6QQw5J4IIVUCDm0572tAR8PA9UqI4L5NTjHvSrAIQBKzPQM4FgcTRdTRuhycrQ9742k9Ra3j2pTWM75ZRTEmJmllrUftbH37effe9ropHPmubSxqd1jIl2H7D81uVW4xV8tUpnMWyEQkljYxByrb/Jd920yIAYzwFLhA7/PM3U57ROEf40Z8KHSZ2AYsZm/naPZ6SM4i19jpXO+1UHJ2sFGnWAEPu8iS5t76pbVerWk6FW5bqLgQUhVz59D2TIsBD4ja6KCxHoLArO4hAbIYONFcPBfOoK+F7gI0uWwEpni5BbSnNrT0bGJZdcksAEd4qg9PzKAYIYhCFXWBD6BClueBdDE/IfQqyNdK9N7FTI+973vun453KtNgUCIKg6pzytg8eW+TJeDOu0005LwWLTdDG0CV+HoIn74cPuuqJQ0liAEBpyxE6FMIvIeNaTSO3kVyf4/aYNO+tBMJ7D2fjVAQIpfszsTO54BzCgFgC/t88ACeZwmi5tFF+RPkcDVv79S1/6UhJutPAQlG1uibWCgwD4uYthLECYpuskxs0lQHi3AQQxBsp/oy8wIObJ357hvnBqMFoDuLIvrF2ZFwCceBrnbXA9vOtd70pz6XlrL1xpeeZDjC+CFJ///Od3Lc30fTw3BCDMtZLiLGMQelFoA99koaIfgMC3VQDCBp7MKXV9FQECIUkD5mLoo/E2kRrd6jEI6w0QAgzUNWAmcUF4hIrUPppnBL8RKAR/nCyLP+TR8E2CMlxvucXNM2FBiEJULA1oBChwz/Glyw5osjTUrQpjl3eXi6Gr3bqyOA3lsQsg6BO60/aVykYrdRu4BbiC0ZZb2Nz5ThyCmAjxDGoYyMb56le/mmi97777pu+4F9wrtkCMTO4Cya0pSwcQZl1JsWsBbeTvLQz0o81st912CSBMA7UvIk2msbEXcVyz6NOqlVoGEGho9sA8YhCYgx3B7GjmrmuIBSEHBLGPCXrCgslfxT9CRsVAVgJaZaRI13PiQzts6t+kCo5t5va6SZ8AFPgtkI6GK0JfHwgzWQL6H2NYC09aK0Domp8x3+cuhrYgRfcATmHdQS90j1N0Q7mLyp/hFvJ90DoK4Pkd61rsBOuNqz7n6MwCIY6hr4uhbkFYuVLLYxbARnom6iAwV2Fca9mMizbuSb7DRevrIvVn1QACkycXA1Pv2NiSJgtCEygdW2q5zcVQF8ghvB3M5ocG+s53vrPac889k1ZKKER6W/0o+NxSEOuxaQz1uitdcT7xvbaa2sODCDZasuwC/nF1KVgcmo6VnwRe6vtoEQFC9JGrgJuBa4vQrtOxDvi6YkhyOtfnrw7QchrGvPhMmqNUyOc85zm9ZMGGAQizqqS4SIx72n0JC4KcXcVAmKOaNnv+WZuGEH1rWqRN/e7bZt/7mhgDc2mUoV7GgMJprwftraKLQVAmcze/+dhMpaEuhqGHNfUBCPogVoC1gBtBOpko97a1Xxc4fTT2upDvo1B08Yx8Hce9IvQFTpsbvnWBkiHUQgPvs/4XFSDoF6uVgkrPfe5zU6ZCG9Cq88A2INEFnJpAQk5DABI4YNURsD7k6pvmqE2AfG6HNZUYhCHTeON7LZiIlpUj22bWa9LE27Tz+LxJsLcJ+yZQ0ff5tjYxFptPPvIQhjKemsvxJFqtUqll69+Y+ckjF30MmBwKEKYZpOjdYU6mlRKsfNV5Kd74O+6N46FzUBB7d9L4g15We9zXBRKaAEKbMKzzD4WCIiXPGPU7f3fXrtMea4TjnvPTHLuem/X3ETzK7SMGTNpi8OMx77Z+x4LbeJ+AZDUSxCiISxmyD0qQ4phZW/BnYjOKQ4gz5Lu0/Sa0X7ceNGnz9c/amEqdmfS9r97+y1/+8rRhnvSkJxWAMGAdrhpAMF5ZDKeffnrK2pjXcc/TBAj2rjot/PgB8tusAVLiBCgCEcbOtM2kz/fsgJ7wT9etCwGyCelNmzalTAQZCn0vgp5mKvo+BP0kkFBXGgSRcn1J+wuA0AVM3LeoACGnm7iA/CydvjSN+4CDww47rDrrrLNS1sKYK2gJgA2Nw0FjmRTO9HHC8EqdxTCG2OWZ9aeA4C4LHUAo1zAKrFqhJKl6QIJCYfM4zXEtaY4BoAkUwEAku/ihEDB5+dyY9XALSDGUvipjAXgGBghsBXVU3Dv77LOTq1HsAsAgpU7AoFQ6cQKED1M/V6QAR0e7C4D8zGc+k9waShYrU8wSIyOECT1KEytHvM8++6Tce4F5kTHVR8iHoPebNQBAIRDDZD6pjXAxOC8BL1ikUvnDdmX73QCCKriKIJnbeV9oKr01AII1NEmxW5pKivMmdHnfdCiAKQAImCDGV65hFFg1gEAgCpDDXDG2JiHbRcEmF0MIsPzZtVZSDGEf5mj+XNkQkZ45SSuXISB1jpB1oJBDinymUJq8dwCBaVnpdfUQWCUABOAAGMH4PaM2ggJJjjQmeIEFRyE/4hGPSMV43A9sCcCTSukobecH7L///tWuu+6aAEjEFKBNH5AQ4/Wsugpy+sVZhDCaJJDUQXCEM1DR511dc71o36O3AkUyD4C6eV9oCmTLRjnyyCPTnLTNq3ksAGHeM1TedyMKWITKidJkCkAYvjhWDSBgWKK2p+1imBVAIKydGsg1kFs8JsXasDBg4oQ2gODHQUPaecYznlGdfPLJ1Zlnnpk0bJr2ueeem6LrWQ9YPDwvwwCQEgjJGiEzQqU+cT4OAOJCYDFglQAwrrnmmpRCbS8yo7MgKLTkcxUBm+jTtloDGIWA1xdui/3222+ir9xz+mwseUbEpLin3M25lvioXEjOsk2g84ILLkinSeZHTPft+9h+5nNlfNxzLEP5GRRNAZVLAxDqi7JpsE0Lug3F1+/te98kNLbsbQ6JQYhNGBYEJtQIUszbWRW65+lofTUntBPguUqVFI1XsBgf/KIWSlJS1xVrXFBYkzCYBAc9KztAxgaTsHGrcKikr3r9iumILSBwtA9QcCeIWWDGZqnw3THHHJMOQOI2UFPBZ1wdtEdVFglizzno6Oijj96cPgqwK+RDYHNX5AIsYiea+t8GtDyjhkWkpja1EZYH1oa+e2A4pF7fJ4AvJ/Gax/VwMcTo0Veg46S5dO/SVFK0uGwMP8u6uNZ3aU/37QQihgEYnH/++WmxSqdhgpMqtYoXGkQxlT7jX0WAYH0wmTONDqFVXYOaZSXFOGlVrAQzO7N+zoj78KeIUzDHrESOOpYGKWCxroR4h33EZQBU4IHcDTvvvPPm8rosGW9605uSUAI6xDKgpSui4PNMCvdHFkJebKkrlqAJIHjeuxT1YZkAlibNXa7B99kHG+keAIElxTH0Y4MUpz3eSetxrgAhKinOqg6CYJ0Pf/jDCaXmC7Vp0cYijI07r0XZZqprev8stOd8cfVhVF2Lsckcl2tPbe/zHAaKocVpaxgSJihoqu/YmyxFPutrEu1L9z5jirF2tVnvm/8xeRaUoelPq1YoyZG//O+iwAnFacUgNK3ziEEYWgchAIJ1bV5z60GbhbEOYOoW0SiclGuA/g6h7jdgwDpg/QtCFLsQ61YcgL5wV2y99dbJIiFGITIh4j6Cm1uC6dn94SdHd+mYLAsCGv0dJwx28ZEAO/h/AIOx4K6LHy3699YEi40zFrbccstF7+586yDMutSy07FcfGr1RRtCo2lGcobddF8X2Og7y5P60OSDamu377197+vb/6b7vKNera3OBNsEJk2QOZbJ2CUtSmBWHhTVBDC6wFzXuOvz3Sb86+PtarfOvLv6mbfP33zwwQff5Kz5rrlZNYBA6AmwckxuLty66FQXwHULQptpfEypZQDB2pZOpsJgH2GYrxV/AwTcBVwFBLFsADUGxA6o7S/oUEyBYDd7iIUBELF3lNBVZQ8/JITUymCdAkAvu+yyBMgd2OSQIO05uAm44E7QhiqV4oGAMEGR6Cw+IcC7tSpN03Nh9ZpE/3xsFDiacwCPLnAxZF43wr0FIEyYpXkABBqFhZyfAZ5rlE3am+/5+QLpxz1d2n4u8LsWem6xWOSF3LefXTTqM0ZtiKzGjGgmwIFgrLFXU9+7tPmx71rLc019ElnON1ksCO2URTem6jgXwJ4bUiAmWtbOLAECgQ0g6Gf47/vyh1gbBLjURAWDAAXxAMowOzFQlL/aIeIOCH2ZDFIWBZ0dd9xxKdBQUKC2dtxxx1TYB8Bwr6BDQYsCHgFyAIaglwWB/733ve9N4Eu1QG06EEhGw3nnnZcse7IS8Eptu2+bbbbp9GPndAeaAJ4odNVFl7Xss0V8NlwMjoFmhVn0a6kqKV5++eXJ5GhTCMBRutfJhy4b1uTYBBY3/zfmwpSmsMepp55anXPOOel/QTLuCQ3Fs5A5VK8NF60ZQpca1GbmzIVoaNVAUlQ4W4/NEX2yQad1YdpRHW6oeZ/W4ix0QVcqqA0VkMFQzWU826W5R156Xauc93xYN370lwaoZOqQefHcKlVSNF4mdGl+8sgjyGroOm4CCE1tjE1zBBBo5K6Yzz5rS7/8sAxwo9Dunc8APMpUeP3rX5/4DyEvSNPe4VZleQIaCGtCnflavQOWhrAg4HusAKx1Dn/Sv7Bu7LHHHgmoA+cyIQASAZB4FV7KJO5kQW4KzwUvZV1xDHa4afvMgxRK/EIshLGOAXh93rOo92xEC4LMGACz7Xj1LW7o4rg9Z2PWpZZzgGCR22COKxXla8PxcVvQzLIieyFpJjopQ5Cx4BELVwCJjeBs9euvvz4BBik/mDlEZZJtUBuWGa7NJJ4jZ/68iy66KCHytVTi6knqibfZ0IKYRC1jQGMvwgmtMO1gbn3bCiCBFhgWZk9DGbrUAvBojyYkfzq0k6a+YJxMqIrGrPdFk6IZYtCEQAEIk2fEXEvNA/4B80nzPKmlWQMEfeOzx3cI2L4CNPiCegcXXnhhylrAj1gDTjrppBRkyDQvjkCcgFgrfMr6wZee8IQnJCXHsczGaE/ZExQgFhP7XRVKShA+iD8KWOSSBRw8j0ezNEgl9Zn3CbJUq0RfCAnWDfxj77333nwuQV8AhCYAArAx1gK03vt2Le8H/ux5IG49sxj6jmGuQYrzBAjqnKsYZoNCP5D1UUcdVT3lKU9JprmXvOQlyXzHJOeMbtG1guYACnm/BImNanM6GIZPjz9QPrONI0L40ksvTdHAfRiA3Feb8YADDhit+fSd1C7maB6YGGkgAA5GMvTCgDARvzGkIZpSDpwihiEsLEHLoUAhzmSnFUkDiwjsfFzGK29cTniAkTYNJoDHULrU75/UjkAxFc2sSetsDEDQhnWM4YyZx7WOb57Ph4uBmZqG28e339S/WQOECFLMNeQuARrrPV/3eA4QwKSv4FHEC1Bs/HBfAAuOvraOgH1av/MC8DvuAkIIkLc/H/3oRyc3njWDLwo2tE8AVUGNeBornv8BCH9LoZUeCZyI/7BGgQ3KFP4a+7aL5/g+LF55FkMXXea5vubxLooiGUCxQtdFv8hElqKlsSBgGkqEWsRMYUqb2kQEIh+vRc96AC3LDWYO5EqAwhUg4ZaAjpnCbCr+O6ezqTCGKQEIELTNxIIgWKjNxRDCL/KRtc8SEZtizObIGUgeNNe3rXgek33Ywx6WBEv0qSnYsE3gsaLQSDxft6D07Uswjbh/bC2A6COGZ64AN8y0fglusy74//Jo6hywBMOr0zksJHUAUx9rHRBEO000MV4BXwrJiCiPIMUhTGPVCiUB7rmLYYyJugkgNAG5sS6GAAgsYwArQdq1J7w/TzOM9Ra/8wOqwtIQVjg0AAwCkHC10dRpq/amvcoKqi+RJmr/41vhZtCGH7wRn2O9YC3govA5l6z3ao/1Ig5l6rNWYw94Hs/ksshL/HbRps87Nso95oHMUehrPSopDqGTeVuaQkkGzsVgMQtSZOK76qqr0qZhQuMqgICZxQTkMFUqDsKCwITG7Mb/ZvFLvYOyWQ58jkjKjmpLYIlN5DdUxW+XV6NqmgCbVwARq0XkvvbdFE2MKxhDXcAOmXyblbWESVKcxhCN3b2YjpKhNjyNI+9T337EO+tn3felTf09LATmiXsJ48sv7yKMaWXcTUPS45qsHMG44x1j+qwNoMU6FYMh6GtIDIJ3rxpAAPbNo0h9tFpEgEAAmFtC1n4nsLv6yaoZNUDwKYI53/uxvwIENIF53xHkwIH3xr5qW7/1/RP35fsxV0Ly+/tYTXPgrb85sBl6yFBfnrLo91FaKQJqv9R51KL1vTdA+OEPf3jDWjvvZRC5jU1zD/PUWtuN5y0+VoIACE2aXQgkqT7ABAAAzeYbg1tBlSsI1xHEfXN9J40jAIJ286pkbc8EYwBUrr322nSbPtpUfIr+BmREGjNVGQeTOTNh3NslsNALcBLsFafF5Ru663naibkUV9E33cy4gCoMEDNkOgWumLBo/+aEyVMKFbqL2I7x9Fkn2m0DCMYjEBBAANSCYQfTguz1B739ZinC2FkijNWzhLh1wcKEERt7uDKMjV+V+dDznrXOxKoYCxo1WY5EpucAYUiQpneuWiXFEDRB96512rRumiwITfeNtSCwYgV4t3YoI3k2Q24xi/fGurPGxMiovWCslBluBkqMuBlKDAup+61DbiVriNXCnnruc5+bnjvxxBPTWqUY+Z+VMPhKHVxEf/Cpiy++OMV3NAX81pUA/6MRYM6ikIOgHNwEcOEmUWK4zTUUoHvMnPbhD/O+p0mRwzcoi7JCQgYGrcYoWWsZU6yDSeC1l4thGgDBQCxAWqf0nWkDBO0TMBY2/9qkK8x5+TnrAR5yzdD3YwMKc8SvDf4/2jq/06QNEIvFb5HJTM8EDEDA1wgUGCckyrIRAgwjOu20025yhGwbHfTJIS3Spe5617smH7jYCqiWlaWtj0GnAAiqo/UFCN4pspqZkvmVMBeRDSCIsLY+CHl9UMxF+uMQP/NYgGCsTq3jThKsyk+IzoK7xKcAdjRXWh2tlQlWoJFNrp9oggYYpfPZuTjMM1BBMMg3F6cRVouctgUg9Gdx6KxaoH0kqn5RsxhygGA9UTrEL9XBe/AW69Y+dK91x4XJdWlNAQIslqx91qg9I3DM2B3hDECIqbHOCGA8wjq74oorknUzMowczuR94qCsU4ADPbWFZwIdwLuYJPTFdxw3bf/5GxAA4o3DZ+bBZ2Ic3C/YOzLE6pYIvArIYXWMOJkm/gKks/xOOs6+/2pZnDvRmYsIf6FEoJX5xWfIwbDAzrPH6I+fRSxP27t7BSlu2rRpKhYEhOI/VB/cYprmZcAWv80RublN7efoOUe57rXgw/RVR7NdqDYEZ67xRvsWvNxkmkEfgBB9FNiITjRSmoC4B4JGYKTNRMCzHAhGcrY35tCkpbbRgQUBY2CpgBRt/AAxTagyH6MFz/ogeGkIQOBDtjEAEtYDYAGgEyXNAsQ8SvPBEMVsDKm3PwYgxDzTzgAC8QB+AAE0RX8gAfPGDPXHGepq2YtnABDMl40PsAEOQDD6YcS0PG3R6Nxbt4gUgNCfC6AzoIbuaNzHdL/eFoSwJBCo9iarWG62t/4ITgWExAXQ9B1WZO1bQ1EPwVp0D/5pPdpzsjlk7RA2AAFeABC4j6ZuX3NdoBsQQfgSTocffnjKkvC5YEMxOdxuMiXEYukrK5696nlC3VoGMvAagDfqUbgPDxCwDAQ0WW4pBSy1udWniZ+ytBg7QNLlkum/ahbjTrKFxVFaqgtN8QNxXKGozrOnYuzwWLx3Eq17AYTjjz9+zQAhNgqzKxRsMU37wuANtsm307Qgm4R69CnX5Nv6mbeZt5XfH2iaaVsEcR+AELSycW16ZmSaBKQpCp/f2uYlTH1He2Dio3FHn7o2WLgYCDvgw+b0LP9pgLf6mHLGZsGjNy053DBd8+md4gNYKjAxAaRcJpgHxgOk0FIwCP1irjeuLnAW7x0LEDxPuHs/mgq8BGJpcwKJWBAwZHNhM/Mtyw3mC0c7oI22ZSyYr/kBCjBkLgb3CwhtGkcOEEolxckryHoEtkMTRc+udd4XINSVhVAYxlRSDAtC/m7ABhi2LuyDfM/Y24AASwGtjnWN4LYPZSYQKvaaNqRkE8basR4DDMRpke6zv6IPQARATvDjQdapzATrG+2UvXdCpPvxGxlcMsCsV+uZcqI/Upm1oX2uTMqItU/ISdEFgOuZTDIp3Ie2fSyBeBDwpy/5/cGHcv4TQLvuyqjz3kl8uc7/2+6dxP+HPIP+5tV8mFfxW+i9HldkyIjXq9Ms/3+uhZKgzohBwHynceUTFC4GyKivUGliDCGg+7YxaRzawNSGuBhiTM9+9rNTChuhRRuwWQlTG9YCs0EJXII2wEP0pYtxBkBgMZDSZJPL8OB/pK1MWvjGZJHT4oa6GGjnGBArAe0EA9lrr72SNYLAFXSn70DkoYcemuIk+l5jAUJoccYkfYw1g6amH2iNqbJ4AGLMxcyzkDfzrjmIKHXMnZA3PuAGILQR5ZXzLReA0Hcmm++zZgFIZnAabxwyNLRV8z3LSopNACHcCRgu6xv3gM8iQ4DblYZuL3NTcfMBFCyP7mE1sNdYsghvwhT4tCbFSkXcFAEONOiDcbLKoRULlz0FkGqXYLDXAGNAVoAsCyWrpKJMFA+gBTDmqmBBsF+9DzDxY0+weOAhrA94ujUeRdNYdO2VvinQ3oGfiacwZv0KF2u028bXWADt33CHxJpoUwxDcQugkf+ur6eYp5ALca82+gCEAEjcsoLiWW/iPIY4N2jIGq73Z4ycUo/Hu62DHHjV25orQJj1YU15oaQxRBsySUPuHRKkGCZvm5fQtrGZHoEEWjUG4n9gizYLOLCY2PQ2lnH3GXsOEAhplw3mh1+qqw2LfShAkI/NFIpREa7Mk2IQZFFYsMZKABO+tCpCdZK7qD4HkwCCe9GzHqQY9I7NzxyK+UqDRQMCCZOF9GlL+kmTA1xYHDBrtKTlAQs0MxYE2iATuOeYlds0KAwRI44shhKk2L6zzBW6ivGgaOSBn0P2YxNAaHp+7GFNTQAhBEmcoEgAE4j2Hu2cVQRQ5+IEIAQjCh62pu1zsUb2pr0PkLonDqsCGqQkepYSAeRGzIP7CHbvJxDwIvdrD4DlF/cOygiXnzb0hXDmOvC88QAEeFLEjhH6ceKj9r3fGvc8gGJ/xJrv4iVBe/sOuGbFRCd7UGGnOKbafvNee4WJHD+Rlk5ZcmYEniQ2xYWmLDBAO55izJ6zfvztOTEbaOJ9k6rhRlYHGnqnucszPeoa+CTQwKoCABqXUtdjLvQ0f+TB2Asf5ObIAUJTW3MFCPMslNR3UY4l8JDnAiDQkpmsJ/XN4ooYhBwpNqHViOi2uNG2y8eX9zmCFGkLYQZss6Y0jdVmZGlQoKVvDEJejjkATr3tyPfOUXpfWmN0TK20w6YcY+4Q5ldZDG1zILYDE4oSyHmkb9DHOIIJEOgu9NCmZzFyDCTXnJqAmzZodNJtaWJD0xyDYbEyyatehUJJ5sN+QtvQzPquj7hvKEAQQEt4d10sT8B6E0AIABq/AyhYF5FRFfE2IXzqmt2k/Rnfxbr0O9ZwW78JSmBXn1n08itciNrgUghelAs/f8c+JniBeppx7N36OLroVwcI3DusRfqnrD1Lnv2pNLt9Y73rA5eJzDj3seAB6AS52jWeZ50hTAEuVhh7jaUF8KAMKVTWFetkf7PmcNngd/Xg9T68M6wWMhmAsTbNPWic86j8M3/rDwurjIihqdHmYQhAWMpSy4sEECK9k9m67YCOfLHkjCw2W/2zps0WbbSZ1fJnaAl853EISwCQvnSzQAXYyLRoEkyT+lBH2Dn4qdMhb6dtw8S4MCnBWABCU3EaUeAsF0yiOa3q4Kutf/l9IZzqjLlt3G2fY3Q0LpkkBSBMFiFoTeNlolUtc14WhGkBhBwk+DuAJmHFOmVt+s2Mb3/2je1pE05dezmE3KT919S2fgMXNHQWQWuXsAWMoyZMuAL6CM6Y9RwghFuWgEcPwpnbReyVODZWRsqAtcBaIT2TkI8Dpbhd1BoQJAxcsEQSpNwezt0B5igRAo8dRjVJ69c/1hYWSEAEqGjjy3Ve0sSzmgBAfeW3zV08y5ojFoXFkrtq6LWyAMHCFJm/SJdJZVISG6FvXfEBs+x7LDAmOOY4m4hpv8+izUEKJiF6mhmwK/ByluPJ24buWTTUhsiZazApJkqm1Pz8jC4m2tT33JIQczmmHTTUVy4IAkEZ2yEuBn1btUJJXD5SAu2npqj5PmutyYKQC4iYS/NDi1WTYBoWhHrfvDN+vNNc0uQBH6Z2ApFLwWfRv7rgnSSQuhSF3NowSSCxEliXNN8AxsC29eo5P9PgaXULAgVE/AN3gDRvAECsgblgdSP8IwZINofvWRPsJ5kW3HcCMAUD+gwdARomfpZTylq4Sie5GIwZ3xBPEbEdMe6Y06bsuBwc1f/OeWkdRPThKdrDOyhnAM5Q/tMUg9C0PpeykuIiAYTYhEx5UnhoQNDxel80bOY46DPX2vsstFjsAvikboqPCG1kCNCYNg1oX0xuApWaLC76yLrA90jb6dIa2vpHcPCB8gP2da80tUWj4d7hqqEVFYDQbUEwh5h61EDos16bGF8EKbIOTJrnWQIE780FS/43v764ItYlvmqxBeKNWMjsNz5/QtszIdxCeMd4uqx4dWud5/Em7QIr2gXCnPRobbIaWPsyi7w3zPLBD8bMRU77HCBoCxj0Tv2ghLC06A+LAstBvJ/LIc41EDvBysAVwX9Oy6YYREA0gCEuAT/mdrCPAY1JlVWNO9+X5AAACj5JREFU2ZHaLBYCqnPrY53PBA19HvORV40Mq1E+Z3GfPkdNhK6sD88IKteeuRl6rRxAQDCpcghfT90YSrxp3p8LzNx37R1r3VBj+plv5hyp5sxpSLueyzWR9RqX98Z46gFE+RzkWtuQceb3YkCyPZgxpTWOHXPOaOK452JBaJ8VcydlVH0Qgn0tWQw0YIJDO3UtPHpQD1Ls2q9dMQhNQCXe3QSs888UGwIMCEKWMsCeMEcPJnbZQUz9gEMUGyMUI7YAwBDM57OwrtHKadasidadWIOIh6A5AmHajEJHbVaCLrr03Wc5QMjr0Wg/+BOamBeBqoIP+eHj3JW4j1VBgKUAYYHQOT8I/lfnCZPG4N2CIFWsBUbye+sgi5VFumjEg5kzMUIRYIrmwJf5C4DCSqQd8RHaR3NWkklWGf3n3vWbVWPoHKwMQIgJN4k2joUVR6z2XZjlvkKBLgrkwErFSvnjUsIwqq7jvtvaztcu/2YcHFY3X056ftVKLUutU6dCIaGxlRTxCiZ8AIG5eZIFAQB0T1QQnLROhgKErjXX9L01w+SPz0VNCKCA5kwz9vnHPvax5MpUwhsvJFD9LS1SICHfO+Fk/AQVAYUmAAQtNo8p6tJkx4yh7Zk6QJjUdhuoywHAUKHZRm9tilvYbbfdbmRByO8PAIOWCiI5GND7uXEpEugKGLAgAw0yt8QyuJ8lkctEkGUUqTIvTQAhHx8LgvfOCiAYX69CSTeMtcXWKD6LLIacYNAvk1FUrAvNro4amxZCLLi2hZc/0/fevvdtlH4u23iG0D3mn0BWkIqWhpEyYdbTlfrSKV9rmLp4jrAg9GFu1vWqAQQ8BLONtLo+dGrS3LkYWBzDAtTEE0JzBAalyHX52ecFECb5u3MgG9ayppS8YOm+y4MV0SFvY6x1bAxwGAIQoo+T3tPnnq5+Bg27AELQk/AHCgh4nwlCVtyKRYHGb7+it7gKsQPuZ1Wg3AJ8lA3ggdtg5QDCrOsg8FExuY1hGl0LpXxfKEBzU5DGpoba1XCA/DEE2tfQKwcIND9a39BT7mglArNWJc2RBobRnnDCCSn+o0tot2mFTKwEepiCJ90n2K1PPY55AIQQ4Hl/+wjC3JWRm8Un8cp589EhAGHoXht7P9oS6GIQJlkQcoDw2te+NrkgXYpUCeZmKeDWso7wEQBBxod4CumbYiPERVBuxTkIHO9yMazFgjAki0EcjuBOoLxpTWwxLQtCAAR5qdOqpFjfKPH/vBf32AVYnltsCsTG95svVm41c7NARwzDpuYDFRFd17yGjCz3iQ55btUAwrQOa2riE/U5mGahpCFz2nVvHRB0AYSu75ssLOvBP5cBIIj1kDqONxDwgrjFL6gSq8aL4PAonw0cyIwQA8KKQPEQYA20siBEymgbeC0AoWun1L4fy2QHvqbcvkIUyL1rEZApstphTVKf5F3XC1qNIU+YMvvGH8Q7Vg0gENp5FsNYC0JfgDDrLIYxa6XNetAEBIaCg7X2Zy3PLwNA4P5Sd0FmhEvmiQPcCH97W+xLnKOhKq5qmnG+hToulGhgQWn+SRlS5rUAhLWstvJsocCUKJBbEcJUGylJeXrUWiwIY7paj0FYj2Njx/R77DPGK8YIk5XOOrZQUt/3hwVBpgOr0SStWt+i+E5bJcW+713V+xYdICgRv88++2yennw95AA/VxgiXiTujXiPvJ6FZ/Nyzl7QFhya8yKuDP+PWW9DXAwzr6QYg7Lh5HxzMURN71XdDGXcG4MCTUGrNFjBR4q48BWu12VfKSmbl1peD9PwvMZvvHLjlcpW0W5sFkPf/uaFkuJsgzb66pt+TSq13Pe9q3rfogIEcx4VFJ2m66qvg/r/oSzkVu36303P9J17bXFlyEhxyubQfb+QAEFwhopXKoSt5aCJvkQs9xUKzIICYhGUfmV+5kdcz0teO/+mwjGzFpjrOU7vxhSZYFlvIrV0jIuh7zjCgsAXLKgsBEPudoq2MGiZKEzDYwrX9O3TMt+3iAABvWn9ApKlNzsQT4np9b7UW3CInPgG5aJnBRCkwuJzmzZtmm2Qok1lw4kCV2hmlht7vSevvH/5KWAtT6q+Ng8KhGlSYBMrghTJZd5XGLWTCp24edRRRyVf7lDGOGRe0Bev4iduu8LChO6KXclEKQBhCJX/795FBQgBTtXgsPaisNG4Ua79KbwHYJUpARw0WTS63rJwhZLqftyuAZTvCwUWlQLOTYDeVewck944zXHlpsyhAY7T7Mc82jJWWQyUjDPOOGMuFpO8RkBe36I+3uJiWPsKABDUp+BTX2/wnY+mzV3Q5H5cOxW6W8jTVMeAA88sHEDoHna5o1BgY1BARDKzm/oHffLjN8aoFr+XEQgWPV00QDSvOgiLP1PDe2huFR9zJgkzftNR1fWgwLpwzF0/dSGa39t0X1gJptnmvN4ztO/65dh751qweAUAagIbc62kOHzZlCcKBRaPAvzgcZ78smcOLBL1MTLmfhUQlaWetYth6NgLQBhKsf+7P+ZWwS/m81m6jsb3cnme5CbZZZddNp983EbvAhCWZ87LSOZEAS4GFRSVWHYYTmFmcyJ8VaXzA5S3JkjGHvc8q94CCE46HJN2Nqs+baR2+dYdajT24LiNNNb17GtYDKQJK8o0KW7Jfpt5muN6EqO8u1Bg2hRQLc1Z9Qol3f3udy8AYdoEbmmP4JAJxcUTWuaiBGXqG4Ag2t0R3m1Xk5l8rfcua5vh46/H2aCXKH7Wu3BFBA3ibIm+LoYm2o+hZ1NmS972orSZ96ktGye/h9uHxe7KK69MmUNNytDUSi3PiY+U1xQKzJQCUe1MufA4+a5YEWZK8tQ4hiaQzcE2IrgXJWsjYiOU4XZqYtOV58B3UarvvX3vC9r53bVO17vNJgHGYqdiqJLENFpphmJ/rAWZBYCC45EdV+07/3eNo49wzOnWJuwnCdxJNTPqa6Dp3r59HNLPMUDGqZOHHHLI5oPkbtL3aZ3F0LUxyveFAhuBAgolEVICfGQxdDHdjTCmjdDHSDsUHKpIzKLUfagz3fVk9n3f3QYW+gqlNkHT9/1NGn6+BoFwoMCZJyLunWOgWJXjq7fddtsEBNzjLBR+8uuuuy5luDCZ+95ZCI6/5oaKsTZZIpoE/xgh2rR/xlgN2oR9tD+LNrv2fk6PJotdsSB0UbB8v1IUYOI+4ogjqtNPPz0dA1wAwnymH6OquxgWgfZ9AMJ8KLQx3pJHzYdA9BkQoDKo2hOXX355dfXVV6ejjw888MBq++23T8I/5rsOMDwvhgFQUOVUGrKqlkC8HwXNFOeL49SbNPguq8PGoO70e9mWjbEZtBQLwvSJXlrcuBQgpK6//vqkoSyKFrtxqdm/5xHprqrbAQccMPOzGPr3rNzZlwLhjokUVf+LJ2ApcByyKpk77LBD9eAHPzjF9wgCDqHu3jizYJIFAlDQDv/5Zz/72ZTSBziw9u2+++7JupCfJpy3tWips33pup73/S94QjZxRcEvggAAAABJRU5ErkJggg==;" vertex="1" parent="1">
          <mxGeometry x="430" y="272.15" width="190" height="37.27" as="geometry" />
        </mxCell>
        <mxCell id="D6SXMCeq1Teb1e1lIuU3-45" value="过滤配置" style="rounded=1;whiteSpace=wrap;html=1;" vertex="1" parent="1">
          <mxGeometry x="650" y="250" width="120" height="60" as="geometry" />
        </mxCell>
        <mxCell id="D6SXMCeq1Teb1e1lIuU3-46" value="时序存储" style="rounded=1;whiteSpace=wrap;html=1;" vertex="1" parent="1">
          <mxGeometry x="866" y="660" width="120" height="60" as="geometry" />
        </mxCell>
        <mxCell id="D6SXMCeq1Teb1e1lIuU3-47" value="聚合维度配置" style="rounded=1;whiteSpace=wrap;html=1;" vertex="1" parent="1">
          <mxGeometry x="796" y="250" width="120" height="60" as="geometry" />
        </mxCell>
        <mxCell id="D6SXMCeq1Teb1e1lIuU3-48" style="edgeStyle=none;rounded=0;orthogonalLoop=1;jettySize=auto;html=1;exitX=0.5;exitY=1;exitDx=0;exitDy=0;entryX=0.5;entryY=0;entryDx=0;entryDy=0;" edge="1" parent="1" source="D6SXMCeq1Teb1e1lIuU3-49" target="D6SXMCeq1Teb1e1lIuU3-39">
          <mxGeometry relative="1" as="geometry" />
        </mxCell>
        <mxCell id="D6SXMCeq1Teb1e1lIuU3-49" value="拆分" style="rounded=1;whiteSpace=wrap;html=1;" vertex="1" parent="1">
          <mxGeometry x="806" y="396" width="120" height="60" as="geometry" />
        </mxCell>
        <mxCell id="D6SXMCeq1Teb1e1lIuU3-50" value="单时序异常检测" style="rounded=1;whiteSpace=wrap;html=1;" vertex="1" parent="1">
          <mxGeometry x="682.5" y="825" width="120" height="60" as="geometry" />
        </mxCell>
        <mxCell id="D6SXMCeq1Teb1e1lIuU3-51" value="多指标联合定位" style="rounded=1;whiteSpace=wrap;html=1;" vertex="1" parent="1">
          <mxGeometry x="802.5" y="825" width="120" height="60" as="geometry" />
        </mxCell>
        <mxCell id="D6SXMCeq1Teb1e1lIuU3-52" value="拓扑图计算" style="rounded=1;whiteSpace=wrap;html=1;" vertex="1" parent="1">
          <mxGeometry x="922.5" y="825" width="120" height="60" as="geometry" />
        </mxCell>
        <mxCell id="D6SXMCeq1Teb1e1lIuU3-53" style="edgeStyle=orthogonalEdgeStyle;rounded=0;orthogonalLoop=1;jettySize=auto;html=1;exitX=0.5;exitY=0;exitDx=0;exitDy=0;entryX=0.5;entryY=1;entryDx=0;entryDy=0;" edge="1" parent="1" source="D6SXMCeq1Teb1e1lIuU3-54" target="D6SXMCeq1Teb1e1lIuU3-74">
          <mxGeometry relative="1" as="geometry" />
        </mxCell>
        <mxCell id="D6SXMCeq1Teb1e1lIuU3-54" value="数据汇总(rmc产品层)" style="rounded=0;whiteSpace=wrap;html=1;" vertex="1" parent="1">
          <mxGeometry x="1256" y="760" width="150" height="140" as="geometry" />
        </mxCell>
        <mxCell id="D6SXMCeq1Teb1e1lIuU3-55" value="" style="endArrow=none;dashed=1;html=1;dashPattern=1 3;strokeWidth=2;" edge="1" parent="1">
          <mxGeometry width="50" height="50" relative="1" as="geometry">
            <mxPoint x="360" y="320" as="sourcePoint" />
            <mxPoint x="1220" y="320" as="targetPoint" />
          </mxGeometry>
        </mxCell>
        <mxCell id="D6SXMCeq1Teb1e1lIuU3-56" value="GOC异常链路实体关联分析&lt;br&gt;(容量风险识别决策)" style="rounded=1;whiteSpace=wrap;html=1;" vertex="1" parent="1">
          <mxGeometry x="1070" y="405" width="120" height="60" as="geometry" />
        </mxCell>
        <mxCell id="D6SXMCeq1Teb1e1lIuU3-57" value="Trace聚合链路容量异常评定&amp;amp;分析&lt;br&gt;(变更容量防御)" style="rounded=1;whiteSpace=wrap;html=1;" vertex="1" parent="1">
          <mxGeometry x="1070" y="485" width="120" height="60" as="geometry" />
        </mxCell>
        <mxCell id="D6SXMCeq1Teb1e1lIuU3-58" value="Trace链路通用指标&amp;amp;自定义指标异常检测&lt;br&gt;(通用变更防御)" style="rounded=1;whiteSpace=wrap;html=1;" vertex="1" parent="1">
          <mxGeometry x="1070" y="565" width="120" height="60" as="geometry" />
        </mxCell>
        <mxCell id="D6SXMCeq1Teb1e1lIuU3-59" value="业务场景自定义维度实时聚合服务&lt;br&gt;(实时变更影响面分析)" style="rounded=1;whiteSpace=wrap;html=1;" vertex="1" parent="1">
          <mxGeometry x="1070" y="645" width="120" height="60" as="geometry" />
        </mxCell>
        <mxCell id="D6SXMCeq1Teb1e1lIuU3-60" value="" style="endArrow=none;dashed=1;html=1;dashPattern=1 3;strokeWidth=2;" edge="1" parent="1">
          <mxGeometry width="50" height="50" relative="1" as="geometry">
            <mxPoint x="1230" y="940" as="sourcePoint" />
            <mxPoint x="1220" y="210" as="targetPoint" />
          </mxGeometry>
        </mxCell>
        <mxCell id="D6SXMCeq1Teb1e1lIuU3-61" value="系统输入：数据&amp;amp;配置" style="text;html=1;align=center;verticalAlign=middle;resizable=0;points=[];autosize=1;strokeColor=none;fillColor=#E6E6E6;" vertex="1" parent="1">
          <mxGeometry x="1075" y="210" width="130" height="20" as="geometry" />
        </mxCell>
        <mxCell id="D6SXMCeq1Teb1e1lIuU3-62" value="业务规则：流计算&amp;amp;算法计算" style="text;html=1;align=center;verticalAlign=middle;resizable=0;points=[];autosize=1;strokeColor=none;fillColor=#E6E6E6;" vertex="1" parent="1">
          <mxGeometry x="1047.5" y="330" width="170" height="20" as="geometry" />
        </mxCell>
        <mxCell id="D6SXMCeq1Teb1e1lIuU3-63" value="系统输出：数据服务&amp;amp;产品服务" style="text;html=1;align=center;verticalAlign=middle;resizable=0;points=[];autosize=1;strokeColor=none;fillColor=#E6E6E6;" vertex="1" parent="1">
          <mxGeometry x="1300" y="280" width="180" height="20" as="geometry" />
        </mxCell>
        <mxCell id="D6SXMCeq1Teb1e1lIuU3-64" value="统一数据结论接口" style="rounded=1;whiteSpace=wrap;html=1;" vertex="1" parent="1">
          <mxGeometry x="1271" y="645" width="120" height="60" as="geometry" />
        </mxCell>
        <mxCell id="D6SXMCeq1Teb1e1lIuU3-65" value="数据结论分析&amp;amp;报表" style="rounded=1;whiteSpace=wrap;html=1;" vertex="1" parent="1">
          <mxGeometry x="1271" y="569" width="120" height="60" as="geometry" />
        </mxCell>
        <mxCell id="D6SXMCeq1Teb1e1lIuU3-66" value="结论数据展示" style="rounded=1;whiteSpace=wrap;html=1;" vertex="1" parent="1">
          <mxGeometry x="1271" y="485" width="120" height="60" as="geometry" />
        </mxCell>
        <mxCell id="D6SXMCeq1Teb1e1lIuU3-67" value="持续优化数据分析" style="rounded=1;whiteSpace=wrap;html=1;" vertex="1" parent="1">
          <mxGeometry x="1271" y="405" width="120" height="60" as="geometry" />
        </mxCell>
        <mxCell id="D6SXMCeq1Teb1e1lIuU3-68" value="1. 根据过滤规则配置，&lt;br&gt;获取生产环境关联的&lt;br&gt;全量或采样的Trace日志" style="text;html=1;align=left;verticalAlign=middle;resizable=0;points=[];autosize=1;strokeColor=none;" vertex="1" parent="1">
          <mxGeometry x="526" y="330" width="140" height="50" as="geometry" />
        </mxCell>
        <mxCell id="D6SXMCeq1Teb1e1lIuU3-69" value="2. 基于获取的Trace组装成单笔Trace链路" style="text;html=1;align=center;verticalAlign=middle;resizable=0;points=[];autosize=1;strokeColor=none;" vertex="1" parent="1">
          <mxGeometry x="409" y="705" width="230" height="20" as="geometry" />
        </mxCell>
        <mxCell id="D6SXMCeq1Teb1e1lIuU3-70" value="3. 根据聚合维度配置，进行分钟级&lt;br&gt;窗口聚合，得到对应的聚合链路" style="text;html=1;align=left;verticalAlign=middle;resizable=0;points=[];autosize=1;strokeColor=none;" vertex="1" parent="1">
          <mxGeometry x="757.5" y="340" width="200" height="30" as="geometry" />
        </mxCell>
        <mxCell id="D6SXMCeq1Teb1e1lIuU3-71" value="4. 将聚合链路，链路实体时序，链路关联元数据实体时序进行算法计算" style="text;html=1;align=center;verticalAlign=middle;resizable=0;points=[];autosize=1;strokeColor=none;" vertex="1" parent="1">
          <mxGeometry x="663" y="910" width="390" height="20" as="geometry" />
        </mxCell>
        <mxCell id="D6SXMCeq1Teb1e1lIuU3-72" value="5. 基于算法和链路的&lt;br&gt;数据，结合业务场景，&lt;br&gt;&lt;div style=&quot;text-align: left&quot;&gt;&lt;span&gt;进行对应的结论计算&lt;/span&gt;&lt;/div&gt;" style="text;html=1;align=center;verticalAlign=middle;resizable=0;points=[];autosize=1;strokeColor=none;" vertex="1" parent="1">
          <mxGeometry x="1062.5" y="735" width="140" height="50" as="geometry" />
        </mxCell>
        <mxCell id="D6SXMCeq1Teb1e1lIuU3-73" value="6. 产品层统一收集数据，&lt;br&gt;汇总存储并对外提供服务" style="text;html=1;align=center;verticalAlign=middle;resizable=0;points=[];autosize=1;strokeColor=none;" vertex="1" parent="1">
          <mxGeometry x="1411" y="735" width="150" height="30" as="geometry" />
        </mxCell>
        <mxCell id="D6SXMCeq1Teb1e1lIuU3-79" style="edgeStyle=orthogonalEdgeStyle;rounded=0;orthogonalLoop=1;jettySize=auto;html=1;exitX=1;exitY=0.25;exitDx=0;exitDy=0;entryX=0;entryY=0.5;entryDx=0;entryDy=0;" edge="1" parent="1" source="D6SXMCeq1Teb1e1lIuU3-74" target="D6SXMCeq1Teb1e1lIuU3-77">
          <mxGeometry relative="1" as="geometry" />
        </mxCell>
        <mxCell id="D6SXMCeq1Teb1e1lIuU3-80" style="edgeStyle=orthogonalEdgeStyle;rounded=0;orthogonalLoop=1;jettySize=auto;html=1;exitX=1;exitY=0.75;exitDx=0;exitDy=0;entryX=0;entryY=0.5;entryDx=0;entryDy=0;" edge="1" parent="1" source="D6SXMCeq1Teb1e1lIuU3-74" target="D6SXMCeq1Teb1e1lIuU3-78">
          <mxGeometry relative="1" as="geometry" />
        </mxCell>
        <mxCell id="D6SXMCeq1Teb1e1lIuU3-74" value="多维度数据服务" style="swimlane;startSize=23;" vertex="1" parent="1">
          <mxGeometry x="1251" y="375" width="160" height="345" as="geometry" />
        </mxCell>
        <mxCell id="D6SXMCeq1Teb1e1lIuU3-75" value="场景业务数据" style="rounded=1;whiteSpace=wrap;html=1;" vertex="1" parent="1">
          <mxGeometry x="1085" y="250" width="120" height="60" as="geometry" />
        </mxCell>
        <mxCell id="D6SXMCeq1Teb1e1lIuU3-76" value="实时动态元数据" style="rounded=1;whiteSpace=wrap;html=1;" vertex="1" parent="1">
          <mxGeometry x="945" y="250" width="120" height="60" as="geometry" />
        </mxCell>
        <mxCell id="D6SXMCeq1Teb1e1lIuU3-77" value="变更核心" style="rounded=1;whiteSpace=wrap;html=1;" vertex="1" parent="1">
          <mxGeometry x="1460" y="431" width="120" height="60" as="geometry" />
        </mxCell>
        <mxCell id="D6SXMCeq1Teb1e1lIuU3-78" value="容量管家" style="rounded=1;whiteSpace=wrap;html=1;" vertex="1" parent="1">
          <mxGeometry x="1460" y="604" width="120" height="60" as="geometry" />
        </mxCell>
        <mxCell id="D6SXMCeq1Teb1e1lIuU3-81" value="单笔模型" style="text;html=1;align=center;verticalAlign=middle;resizable=0;points=[];autosize=1;strokeColor=none;" vertex="1" parent="1">
          <mxGeometry x="650" y="560" width="60" height="20" as="geometry" />
        </mxCell>
        <mxCell id="D6SXMCeq1Teb1e1lIuU3-82" value="链路模型" style="text;html=1;align=center;verticalAlign=middle;resizable=0;points=[];autosize=1;strokeColor=none;" vertex="1" parent="1">
          <mxGeometry x="995" y="565" width="60" height="20" as="geometry" />
        </mxCell>
        <mxCell id="D6SXMCeq1Teb1e1lIuU3-84" value="" style="edgeStyle=orthogonalEdgeStyle;rounded=0;orthogonalLoop=1;jettySize=auto;html=1;" edge="1" parent="1" source="D6SXMCeq1Teb1e1lIuU3-85" target="D6SXMCeq1Teb1e1lIuU3-87">
          <mxGeometry relative="1" as="geometry" />
        </mxCell>
        <mxCell id="D6SXMCeq1Teb1e1lIuU3-85" value="聚合" style="rounded=1;whiteSpace=wrap;html=1;" vertex="1" parent="1">
          <mxGeometry x="460" y="537" width="120" height="60" as="geometry" />
        </mxCell>
        <mxCell id="D6SXMCeq1Teb1e1lIuU3-87" value="存储" style="rounded=1;whiteSpace=wrap;html=1;" vertex="1" parent="1">
          <mxGeometry x="460" y="623" width="120" height="60" as="geometry" />
        </mxCell>
        <mxCell id="D6SXMCeq1Teb1e1lIuU3-91" style="edgeStyle=none;rounded=0;orthogonalLoop=1;jettySize=auto;html=1;exitX=0.5;exitY=1;exitDx=0;exitDy=0;entryX=0.5;entryY=0;entryDx=0;entryDy=0;" edge="1" parent="1" source="D6SXMCeq1Teb1e1lIuU3-92" target="D6SXMCeq1Teb1e1lIuU3-85">
          <mxGeometry relative="1" as="geometry" />
        </mxCell>
        <mxCell id="D6SXMCeq1Teb1e1lIuU3-92" value="采集" style="rounded=1;whiteSpace=wrap;html=1;" vertex="1" parent="1">
          <mxGeometry x="460" y="450" width="120" height="60" as="geometry" />
        </mxCell>
      </root>
    </mxGraphModel>
  </diagram>
</mxfile>
